<svg aria-hidden="true" style="position: absolute; width: 0; height: 0; overflow: hidden;" version="1.1" xmlns="http://www.w3.org/2000/svg" xmlns:xlink="http://www.w3.org/1999/xlink">
<defs>

<symbol id="search" viewBox="0 0 20 20" stroke-width="1.8" stroke-linecap="round" stroke-linejoin="round">
    <path d="M9.16667 15.8333C12.8486 15.8333 15.8333 12.8486 15.8333 9.16667C15.8333 5.48477 12.8486 2.5 9.16667 2.5C5.48477 2.5 2.5 5.48477 2.5 9.16667C2.5 12.8486 5.48477 15.8333 9.16667 15.8333Z" />
    <path d="M17.5 17.5L13.875 13.875"/>
</symbol>
<symbol id="edit" viewBox="0 0 32 32">
<path d="M12 20l4-2 14-14-2-2-14 14-2 4zM9.041 27.097c-0.989-2.085-2.052-3.149-4.137-4.137l3.097-8.525 4-2.435 12-12h-6l-12 12-6 20 20-6 12-12v-6l-12 12-2.435 4z"></path>
</symbol>
<symbol id="key" viewBox="0 0 32 32">
<path d="M30 3.525l-3.132-3.132c-0.523-0.524-1.372-0.524-1.896 0s-0.524 1.372 0 1.896l2.184 2.184-0.779 0.779-0.886-0.886c-0.523-0.524-1.372-0.524-1.896 0s-0.524 1.372 0 1.896l0.886 0.886-0.779 0.779-2.184-2.184c-0.523-0.524-1.372-0.524-1.896 0s-0.524 1.372 0 1.896l2.184 2.184-6.623 6.623c-3.362-2.449-8.112-2.158-11.143 0.874-3.362 3.362-3.362 8.803 0 12.166 3.354 3.354 8.812 3.354 12.166-0 3.032-3.032 3.322-7.781 0.874-11.143l12.92-12.92c0.523-0.523 0.523-1.373-0-1.896zM14.355 27.588c-2.309 2.309-6.065 2.309-8.374 0-2.314-2.314-2.314-6.060 0-8.374 2.309-2.309 6.065-2.309 8.374 0s2.309 6.065 0 8.374z" />
</symbol>
<symbol id="logout" viewBox="0 0 17 17">
<path d="M3 2.5C3.26522 2.5 3.51957 2.39464 3.70711 2.20711C3.89464 2.01957 4 1.76522 4 1.5C4 1.23478 3.89464 0.98043 3.70711 0.792893C3.51957 0.605357 3.26522 0.5 3 0.5H1C0.734784 0.5 0.48043 0.605357 0.292893 0.792893C0.105357 0.98043 0 1.23478 0 1.5V15.5C0 15.7652 0.105357 16.0196 0.292893 16.2071C0.48043 16.3946 0.734784 16.5 1 16.5H3C3.26522 16.5 3.51957 16.3946 3.70711 16.2071C3.89464 16.0196 4 15.7652 4 15.5C4 15.2348 3.89464 14.9804 3.70711 14.7929C3.51957 14.6054 3.26522 14.5 3 14.5H2V2.5H3ZM16.82 7.92L14 3.92C13.8471 3.70441 13.615 3.55814 13.3545 3.51317C13.0941 3.4682 12.8264 3.52818 12.61 3.68C12.5018 3.75579 12.4098 3.85224 12.3391 3.96381C12.2684 4.07537 12.2206 4.19982 12.1982 4.32998C12.1759 4.46015 12.1796 4.59344 12.2091 4.72217C12.2386 4.8509 12.2933 4.97252 12.37 5.08L14.09 7.5H6C5.73478 7.5 5.48043 7.60536 5.29289 7.79289C5.10536 7.98043 5 8.23478 5 8.5C5 8.76522 5.10536 9.01957 5.29289 9.20711C5.48043 9.39464 5.73478 9.5 6 9.5H14L12.2 11.9C12.1212 12.0051 12.0639 12.1246 12.0313 12.2518C11.9987 12.379 11.9915 12.5114 12.01 12.6414C12.0286 12.7714 12.0726 12.8965 12.1395 13.0095C12.2064 13.1225 12.2949 13.2212 12.4 13.3C12.5731 13.4298 12.7836 13.5 13 13.5C13.1552 13.5 13.3084 13.4639 13.4472 13.3944C13.5861 13.325 13.7069 13.2242 13.8 13.1L16.8 9.1C16.9281 8.93087 16.999 8.72539 17.0026 8.51326C17.0062 8.30114 16.9423 8.09338 16.82 7.92Z"/>
</symbol>
</defs>
</svg>
